<svg id="Layer_1" data-name="Layer 1" xmlns="http://www.w3.org/2000/svg" xmlns:xlink="http://www.w3.org/1999/xlink" viewBox="0 0 254.48 254.48"><defs><style>.cls-1{fill:none;}.cls-2{clip-path:url(#clip-path);}.cls-3{fill:#fff;}.cls-4{fill:#272432;}.cls-5{fill:#e6007e;}.cls-6{fill:#9b989c;}</style><clipPath id="clip-path" transform="translate(0 -0.52)"><rect class="cls-1" x="0.06" y="0.52" width="254.42" height="254.48"/></clipPath></defs><title>worth-logo-svg</title><g class="cls-2"><path class="cls-3" d="M254.48,127.76A127.24,127.24,0,1,1,127.24.52,127.24,127.24,0,0,1,254.48,127.76" transform="translate(0 -0.52)"/></g><path class="cls-4" d="M118.52,139.54c-.11,4-1.14,7-3.4,9.45a12.15,12.15,0,0,1-17.31,0c-2.27-2.42-3.24-5.53-3.4-9.45s-.08-12.74,0-16.83,1.12-7.39,3.36-9.87a12.15,12.15,0,0,1,17.44,0c2.21,2.45,3.27,5.88,3.32,9.91s.11,12.88,0,16.83m-6,.06c.06-2.2.09-14.47,0-16.89s-.53-4.29-1.59-5.58a5.45,5.45,0,0,0-4.48-1.94,5.35,5.35,0,0,0-4.41,1.94c-1,1.29-1.5,3.18-1.57,5.58s-.11,14.65,0,16.89.54,3.94,1.61,5.18a5.47,5.47,0,0,0,4.36,1.86,5.56,5.56,0,0,0,4.41-1.89A7.75,7.75,0,0,0,112.52,139.6Z" transform="translate(0 -0.52)"/><path class="cls-4" d="M152.34,152.14h-7l-9.68-17.57h-3.3v17.57h-6.06V121.67a12.65,12.65,0,0,1,3.27-9.13,12.95,12.95,0,0,1,17.56,0,12.65,12.65,0,0,1,3.28,9.1,14.14,14.14,0,0,1-1.48,6.57,11.79,11.79,0,0,1-4.32,4.65,13.29,13.29,0,0,1-1.33.74,5.84,5.84,0,0,1-1.09.41l10.18,18.11m-8-30.47a6.8,6.8,0,0,0-1.61-4.78,6.36,6.36,0,0,0-8.79,0,7.26,7.26,0,0,0-1.61,4.78c-.07,2,0,6.83,0,6.83s4,.1,6,0a5.91,5.91,0,0,0,4.47-1.75A7.47,7.47,0,0,0,144.35,121.67Z" transform="translate(0 -0.52)"/><polyline class="cls-4" points="177.33 115.14 168.25 115.14 168.25 151.62 162.18 151.62 162.18 115.14 153.1 115.14 153.1 109.14 177.33 109.14 177.33 115.14"/><polyline class="cls-4" points="208.19 151.62 202.18 151.62 202.18 133.19 187.83 133.19 187.83 151.62 181.82 151.62 181.82 109.14 187.83 109.14 187.83 127.22 202.18 127.22 202.18 109.14 208.19 109.14 208.19 151.62"/><path class="cls-4" d="M83.75,110.94l-2.75.64c0,6.55.06,27.66,0,29.05a6.06,6.06,0,0,1-1.77,4.25,6.07,6.07,0,0,1-8.58,0,6.2,6.2,0,0,1-1.78-4.28c-.06-1.23,0-17.56,0-26-2,.52-4,1.06-6,1.63,0,8.74,0,23.25,0,24.41a6,6,0,0,1-1.75,4.25,5.74,5.74,0,0,1-4.23,1.76,5.87,5.87,0,0,1-4.29-1.76,6,6,0,0,1-1.78-4.25c0-1,0-12,0-20.66-1.19.42-2.36.85-3.48,1.28-.81.31-1.67.65-2.55,1,0,7.75,0,16.52,0,18.31a12.07,12.07,0,0,0,3.54,8.52,11.92,11.92,0,0,0,13.42,2.44,12.65,12.65,0,0,0,4.14-3,12.67,12.67,0,0,0,4.13,3,11.93,11.93,0,0,0,13.42-2.44A12.11,12.11,0,0,0,87,140.58c.11-3.07,0-26.64,0-30.4l-3.23.76" transform="translate(0 -0.52)"/><path class="cls-5" d="M115.68,99.52l-28.29,6.4c-4.69,1.12-9.39,2.16-14,3.36S64,111.64,59.44,113s-9.16,2.76-13.57,4.47a47.65,47.65,0,0,0-12.28,6.39c-1.71,1.38-3.09,3.08-3.26,4.89s1,3.81,2.54,5.43c3.21,3.32,7.52,5.73,11.73,8.08a56.15,56.15,0,0,1-6.81-2.64,29.75,29.75,0,0,1-6.36-3.9,13.19,13.19,0,0,1-2.64-3,7.72,7.72,0,0,1-1.27-4.12,8,8,0,0,1,1.26-4.18,15.08,15.08,0,0,1,2.6-3.12,31.15,31.15,0,0,1,6.26-4.4,72.69,72.69,0,0,1,6.71-3.24,140.68,140.68,0,0,1,13.9-4.82,248.49,248.49,0,0,1,28.5-6.24,253.39,253.39,0,0,1,28.93-3.13" transform="translate(0 -0.52)"/><path class="cls-6" d="M117.83,93.47c-.72.32-1.39.65-2,1,.42,1.5.79,3.08,1.1,4.75s.51,3.28.65,4.82c.71.09,1.45.17,2.23.21a17.58,17.58,0,0,1-1.11,6.07c0,.16,10.51-1.78,12-6.3a2.81,2.81,0,0,0,.08-.35c.76-.11,1.53-.24,2.31-.38,11.81-2.15,20.14-10.7,20.14-10.7s-10.81-5.06-22.62-2.9c-.78.14-1.54.3-2.3.46a2.54,2.54,0,0,0-.2-.3c-3-3.7-13.55-1.79-13.45-1.66a17.56,17.56,0,0,1,3.18,5.29" transform="translate(0 -0.52)"/><path class="cls-3" d="M134.37,92.92a3.05,3.05,0,1,0,3.55,2.46,3.05,3.05,0,0,0-3.55-2.46" transform="translate(0 -0.52)"/></svg>